PathFileType	4	(X/Y/Z)	D:\mayra\Descargas\0003~aa~Standing.trc
DataRate	CameraRate	NumFrames	NumMarkers	Units	OrigDataRate	OrigDataStartFrame	OrigNumFrames
250.00	250.00	8	22	mm	250.00	1609	2178
Frame#	Time	r.should			l.should			c7			r.asis			l.asis			sacrum			r.bar1			l.bar1			r.knee1			l.knee1			r.bar2			r.mall			l.bar2			l.mall			r.met			r.heel			l.heel			l.met			r.mallm			l.mallm			r.kneem			l.kneem			
		X1	Y1	Z1	X2	Y2	Z2	X3	Y3	Z3	X4	Y4	Z4	X5	Y5	Z5	X6	Y6	Z6	X7	Y7	Z7	X8	Y8	Z8	X9	Y9	Z9	X10	Y10	Z10	X11	Y11	Z11	X12	Y12	Z12	X13	Y13	Z13	X14	Y14	Z14	X15	Y15	Z15	X16	Y16	Z16	X17	Y17	Z17	X18	Y18	Z18	X19	Y19	Z19	X20	Y20	Z20	X21	Y21	Z21	X22	Y22	Z22	

1608	6.432000	1000.829816	1330.357552	360.509217	1030.392408	1319.354296	70.578478	920.390010	1355.902195	224.953115	1136.225224	870.823562	361.510754	1082.927465	872.622490	59.630461	883.576632	938.284039	236.210480	1033.440828	834.908664	435.009480	1027.823806	794.150472	26.434012	1007.963657	467.824399	388.679087	1001.740694	447.200894	96.848398	1004.685998	405.291855	383.861810	970.862508	76.183349	364.049166	980.574846	403.299451	94.120860	975.107491	70.201233	111.166738	1115.974069	42.711124	344.989240	909.044325	33.439744	319.151521	914.235830	32.691352	150.356442	1117.355585	40.919952	129.422516	980.634570	75.306572	280.417264	978.019536	74.540198	193.016142	1033.763289	450.387150	249.908447	1010.158658	447.950602	230.484098	
1609	6.436000	1000.828981	1330.355048	360.494643	1030.378342	1319.353104	70.563450	920.388639	1355.899215	224.939242	1136.212826	870.818615	361.494422	1082.931042	872.626364	59.615210	883.600473	938.275993	236.198589	1033.432722	834.898710	434.997916	1027.826786	794.146180	26.423169	1007.963777	467.822224	388.671815	1001.742363	447.194546	96.849218	1004.683018	405.289948	383.865267	970.854878	76.181903	364.056587	980.590582	403.297335	94.118528	975.110292	70.209295	111.171268	1115.976214	42.713542	345.004201	909.047484	33.436377	319.150984	914.240539	32.679424	150.352836	1117.351294	40.917385	129.434943	980.622768	75.307071	280.415416	978.018880	74.536309	193.018809	1033.765197	450.375289	249.907658	1010.157704	447.944343	230.481833	
1610	6.440000	1000.819683	1330.350280	360.468507	1030.356050	1319.350481	70.546173	920.375526	1355.892181	224.916592	1136.228800	870.822608	361.487359	1082.890511	872.617006	59.617389	883.585393	938.277721	236.177012	1033.414483	834.895849	434.968770	1027.825236	794.145584	26.403973	1007.956862	467.832178	388.660163	1001.736999	447.204471	96.830755	1004.665375	405.283481	383.859426	970.836878	76.192901	364.061594	980.586171	403.294176	94.110191	975.115180	70.208475	111.177549	1115.972877	42.706285	345.005929	909.038782	33.438023	319.147110	914.235592	32.681145	150.357500	1117.337465	40.919628	129.429013	980.622530	75.301304	280.420184	978.018165	74.545853	193.013445	1033.758044	450.379431	249.903738	1010.155916	447.941512	230.474114	
1611	6.444000	1000.794291	1330.341816	360.444158	1030.341387	1319.349289	70.525207	920.353413	1355.888486	224.893048	1136.216640	870.819151	361.472815	1082.891822	872.622490	59.601411	883.558631	938.280880	236.146107	1033.365488	834.881425	434.931278	1027.822018	794.151843	26.386656	1007.953763	467.829615	388.646603	1001.733661	447.202802	96.817032	1004.672766	405.279517	383.849859	970.836520	76.197729	364.052832	980.569959	403.295517	94.090685	975.122452	70.205316	111.173600	1115.963936	42.707004	345.002204	909.030378	33.439975	319.141865	914.232433	32.687191	150.364295	1117.343426	40.918387	129.422873	980.624735	75.300843	280.407220	978.005469	74.545220	192.991510	1033.787966	450.408578	249.867380	1010.151386	447.947800	230.464309	
1612	6.448000	1000.778675	1330.340505	360.428274	1030.325532	1319.349885	70.504241	920.329571	1355.897665	224.861875	1136.211872	870.819628	361.458421	1082.923651	872.637630	59.565239	883.528888	938.280284	236.113280	1033.348083	834.866166	434.909791	1027.812719	794.149041	26.373105	1007.944584	467.818558	388.643801	1001.725197	447.206259	96.805364	1004.670382	405.270845	383.848011	970.853627	76.192781	364.050090	980.562747	403.298885	94.064325	975.127280	70.202984	111.165173	1115.965486	42.703368	345.001757	909.028590	33.434518	319.140613	914.225817	32.691453	150.348306	1117.339969	40.912531	129.418239	980.617166	75.307079	280.398339	977.995038	74.542627	192.973316	1033.770323	450.410664	249.869376	1010.141253	447.953880	230.443791	
1613	6.452000	1000.782728	1330.342412	360.411584	1030.308247	1319.349170	70.481859	920.306087	1355.902076	224.833190	1136.221290	870.828211	361.448944	1082.894325	872.630775	59.564836	883.505583	938.279212	236.082718	1033.348203	834.860504	434.899032	1027.808547	794.146776	26.364975	1007.938385	467.810065	388.646185	1001.717567	447.211623	96.794993	1004.667282	405.265450	383.848637	970.853031	76.187298	364.058197	980.548680	403.305709	94.036967	975.113511	70.196554	111.166418	1115.975857	42.706370	345.000654	909.031451	33.434518	319.147110	914.237857	32.697700	150.340274	1117.341280	40.913049	129.419059	980.605483	75.321712	280.406296	978.003860	74.540980	192.975923	1033.711433	450.384498	249.889672	1010.134697	447.953999	230.434597	
1614	6.456000	1000.799179	1330.340147	360.395074	1030.295968	1319.349170	70.461355	920.309424	1355.910063	224.820778	1136.221528	870.830119	361.436814	1082.919598	872.628510	59.539229	883.512139	938.269258	236.068368	1033.353090	834.849179	434.882194	1027.812004	794.149935	26.347827	1007.938027	467.805624	388.642997	1001.717448	447.207779	96.790783	1004.663110	405.253053	383.843362	970.857799	76.186314	364.062905	980.543137	403.302878	94.029643	975.102484	70.188478	111.174598	1115.983963	42.712681	344.999105	909.026980	33.435181	319.145799	914.234102	32.697797	150.338769	1117.337108	40.909417	129.421771	980.613470	75.317137	280.411690	978.018641	74.538529	192.987993	1033.712506	450.389326	249.884501	1010.123730	447.960019	230.434790	
1615	6.460000	1000.798464	1330.345511	360.382348	1030.281901	1319.347858	70.440970	920.311868	1355.906129	224.822402	1136.222839	870.838165	361.420929	1082.925081	872.630119	59.527501	883.519650	938.277721	236.076832	1033.347964	834.856391	434.870511	1027.822971	794.154048	26.327400	1007.930756	467.807651	388.636291	1001.712918	447.201043	96.782677	1004.644632	405.253857	383.832812	970.854402	76.192178	364.060938	980.548918	403.303862	94.030134	975.108266	70.185550	111.170903	1115.988493	42.721733	345.002979	909.025669	33.436898	319.139391	914.206743	32.701705	150.330424	1117.329955	40.914111	129.421726	980.613589	75.304300	280.415058	978.024006	74.540682	192.989886	1033.706546	450.394839	249.878049	1010.116816	447.955400	230.426282	
